<svg width="20" height="19" viewBox="0 0 20 19" fill="none" xmlns="http://www.w3.org/2000/svg">
<path fill-rule="evenodd" clip-rule="evenodd" d="M6.41265 10.659C5.87535 10.659 5.43884 10.2225 5.43884 9.68523C5.43884 9.14952 5.87535 8.71301 6.41265 8.71301C6.94995 8.71301 7.38646 9.14952 7.38646 9.68523C7.38646 10.2225 6.94995 10.659 6.41265 10.659ZM10.1983 10.659C9.66105 10.659 9.22454 10.2225 9.22454 9.68523C9.22454 9.14952 9.66105 8.71301 10.1983 8.71301C10.7357 8.71301 11.1722 9.14952 11.1722 9.68523C11.1722 10.2225 10.7357 10.659 10.1983 10.659ZM13.0104 9.68523C13.0104 10.2225 13.4469 10.659 13.9842 10.659C14.5215 10.659 14.958 10.2225 14.958 9.68523C14.958 9.14952 14.5215 8.71301 13.9842 8.71301C13.4469 8.71301 13.0104 9.14952 13.0104 9.68523Z" fill="url(#paint0_linear_103_1550)"/>
<path fill-rule="evenodd" clip-rule="evenodd" d="M10.0166 1.16669C5.17496 1.16669 1.66663 5.12179 1.66663 9.51254C1.66663 10.9146 2.07496 12.3576 2.79163 13.6763C2.92496 13.8941 2.94163 14.1687 2.84996 14.4282L2.29163 16.2977C2.16663 16.7484 2.54996 17.0814 2.97496 16.9479L4.65829 16.4479C5.11663 16.2977 5.47496 16.4888 5.89996 16.7484C7.11663 17.4653 8.63329 17.8334 9.99996 17.8334C14.1333 17.8334 18.3333 14.6369 18.3333 9.4875C18.3333 5.04667 14.75 1.16669 10.0166 1.16669Z" stroke="url(#paint1_linear_103_1550)" stroke-width="1.5" stroke-linecap="round" stroke-linejoin="round"/>
<defs>
<linearGradient id="paint0_linear_103_1550" x1="14.958" y1="10.659" x2="5.34427" y2="9.87994" gradientUnits="userSpaceOnUse">
<stop stop-color="#888BF4"/>
<stop offset="1" stop-color="#5151C6"/>
</linearGradient>
<linearGradient id="paint1_linear_103_1550" x1="18.3333" y1="17.8334" x2="1.39515" y2="17.5527" gradientUnits="userSpaceOnUse">
<stop stop-color="#888BF4"/>
<stop offset="1" stop-color="#5151C6"/>
</linearGradient>
</defs>
</svg>
