<?xml version="1.0" encoding="UTF-8"?>
<svg version="1.1" xmlns="http://www.w3.org/2000/svg" width="512" height="512">
<path d="M0 0 C1.21042969 0.4021875 2.42085937 0.804375 3.66796875 1.21875 C17.2949734 6.0728479 28.6653533 13.91058221 39 24 C39.78117188 24.7425 40.56234375 25.485 41.3671875 26.25 C46.36577554 31.09711568 51.16220921 36.16310275 55 42 C55 42.66 55 43.32 55 44 C55.66 44 56.32 44 57 44 C57.26167969 43.43152344 57.52335937 42.86304688 57.79296875 42.27734375 C68.56794854 21.94785114 90.71645475 6.8341966 112.109375 0.0078125 C131.62747547 -5.5311079 153.6134962 -4.77425058 173 1 C173.73927734 1.21479004 174.47855469 1.42958008 175.24023438 1.65087891 C186.67932364 5.07524147 197.43058126 9.94964682 208.25 14.9375 C233.98502447 26.7834167 259.00744207 33.94440106 287.43505859 35.14208984 C295.28537697 35.56508832 295.28537697 35.56508832 299.18359375 37.9375 C302.520079 41.72602519 302.13064366 45.02445821 302.09765625 49.8515625 C302.09553383 51.01261002 302.09553383 51.01261002 302.09336853 52.19711304 C302.08776403 54.67311442 302.07521083 57.14902588 302.0625 59.625 C302.05748558 61.30208203 302.05292257 62.97916547 302.04882812 64.65625 C302.03779315 68.77086806 302.02052554 72.88541878 302 77 C302.721875 76.896875 303.44375 76.79375 304.1875 76.6875 C307 77 307 77 309.77099609 78.72851562 C313.17693641 83.72737654 312.7156355 88.42491415 312.6640625 94.34375 C312.66884613 95.54559937 312.67362976 96.74744873 312.67855835 97.98571777 C312.68195753 100.52418325 312.67275412 103.06269249 312.65185547 105.60107422 C312.62509406 109.48634463 312.65160683 113.36872569 312.68359375 117.25390625 C312.68028966 119.72136054 312.67388345 122.18881304 312.6640625 124.65625 C312.67418365 125.81781616 312.68430481 126.97938232 312.69473267 128.17614746 C312.67897186 129.26077271 312.66321106 130.34539795 312.64697266 131.46289062 C312.64299469 132.41377563 312.63901672 133.36466064 312.63491821 134.34436035 C311.71599614 138.18788831 310.0840819 139.55830169 307 142 C303.96384932 142.47236351 301.50114505 142.63834161 298.47341919 142.57194519 C297.61654003 142.57324521 296.75966087 142.57454523 295.87681568 142.57588464 C293.00598003 142.5744153 290.13669908 142.5373821 287.26611328 142.50073242 C285.20780171 142.49281335 283.14947999 142.48723555 281.09115601 142.48382568 C276.65863383 142.47228509 272.22653959 142.44577572 267.79416275 142.40819359 C260.78517064 142.35049893 253.77650571 142.33603642 246.76730347 142.329422 C226.83628095 142.30399486 206.9057209 142.22029928 186.97509766 142.09301758 C175.96738285 142.02310205 164.96012988 141.98905121 153.95218837 141.99343377 C146.98445835 141.99403555 140.01890899 141.94972324 133.05163217 141.87220132 C128.71572642 141.83438635 124.38060123 141.83830139 120.04459 141.85398865 C118.03496774 141.85287336 116.02527022 141.83460428 114.01598358 141.7978611 C103.53488438 141.18152146 103.53488438 141.18152146 94.35113144 145.16924477 C92.57520668 147.70975586 91.3296019 150.21004866 90 153 C82.83576734 160.86575654 72.21327925 166.76301863 61.49609375 167.37109375 C46.79590159 167.72921067 35.03890657 165.43678439 24 155 C21.10943993 152.0268525 18.53130891 149.28743058 16.93815422 145.42700958 C15.12691983 142.606465 15.12691983 142.606465 11.36517525 142.38311005 C9.81042347 142.36118791 8.25513834 142.36720783 6.70046997 142.39440918 C5.41559781 142.38716741 5.41559781 142.38716741 4.10476863 142.37977934 C1.22315286 142.36950847 -1.65706447 142.39491181 -4.53857422 142.41992188 C-6.59984481 142.41965536 -8.66111619 142.41712422 -10.72238159 142.41249084 C-15.16690594 142.40707747 -19.61103435 142.41717045 -24.05550766 142.4389801 C-31.08064773 142.47276348 -38.10545013 142.46877111 -45.13064575 142.4588623 C-61.31421282 142.44184862 -77.49760896 142.47466852 -93.68113708 142.50778961 C-108.50569392 142.53762398 -123.33006453 142.55702213 -138.15464795 142.53612375 C-145.14068155 142.52771543 -152.12611549 142.54360193 -159.11206412 142.57791901 C-163.45645029 142.59434161 -167.80063986 142.59021785 -172.1450386 142.58047295 C-174.16188078 142.58021252 -176.17874497 142.58856877 -178.19551086 142.60611153 C-180.94641178 142.62887853 -183.69558991 142.62103919 -186.44650269 142.60559082 C-187.24699126 142.61967468 -188.04747984 142.63375854 -188.87222564 142.64826918 C-192.92602198 142.59151335 -194.77621869 142.17722749 -197.99491119 139.62812805 C-200.29866272 136.60853411 -200.63126974 135.21648331 -200.64697266 131.46289062 C-200.66273346 130.37826538 -200.67849426 129.29364014 -200.69473267 128.17614746 C-200.68461151 127.0145813 -200.67449036 125.85301514 -200.6640625 124.65625 C-200.66884613 123.45440063 -200.67362976 122.25255127 -200.67855835 121.01428223 C-200.68195753 118.47581675 -200.67275412 115.93730751 -200.65185547 113.39892578 C-200.62509406 109.51365537 -200.65160683 105.63127431 -200.68359375 101.74609375 C-200.68028966 99.27863946 -200.67388345 96.81118696 -200.6640625 94.34375 C-200.67418365 93.18218384 -200.68430481 92.02061768 -200.69473267 90.82385254 C-200.57885772 82.84958307 -200.57885772 82.84958307 -197.77099609 78.72851562 C-194.81485432 76.88450825 -193.40900066 76.51299991 -190 77 C-190.02094727 75.96593018 -190.04189453 74.93186035 -190.06347656 73.86645508 C-190.13605288 70.01812672 -190.18186317 66.16985846 -190.21972656 62.32104492 C-190.23980207 60.65752987 -190.26706876 58.99408504 -190.30175781 57.33081055 C-190.35045766 54.9352076 -190.37300856 52.54054008 -190.390625 50.14453125 C-190.41127014 49.4047554 -190.43191528 48.66497955 -190.45318604 47.90278625 C-190.45477859 44.211115 -190.12059871 42.187083 -188.10058594 39.0534668 C-184.99701818 36.0195165 -183.12331227 35.84485606 -178.890625 35.60546875 C-147.99884756 33.67266517 -121.55416934 26.6023075 -93.45605469 13.72900391 C-65.0370977 0.71920794 -31.10075575 -10.43278211 0 0 Z M-57 22 C-57.71865234 22.23074219 -58.43730469 22.46148437 -59.17773438 22.69921875 C-69.03414331 25.94179715 -78.42052903 30.0455982 -87.8125 34.4375 C-114.33319856 46.8108694 -140.78026073 54.05201738 -170 56 C-170 62.93 -170 69.86 -170 77 C-167.48566849 77.00586624 -164.97133698 77.01173248 -162.3808136 77.01777649 C-138.67708636 77.07449124 -114.97344991 77.14759548 -91.26981831 77.23571491 C-79.08377766 77.28062476 -66.89776592 77.32005054 -54.71166992 77.34643555 C-44.0866718 77.36945456 -33.46176554 77.40289621 -22.83684033 77.44870156 C-17.21430085 77.47258108 -11.59185206 77.49134439 -5.96926308 77.49761391 C-0.66936704 77.5036886 4.63029713 77.52377435 9.93010712 77.55427551 C11.86776172 77.56301762 13.80544668 77.56678632 15.74312019 77.56500816 C26.27314429 77.55840023 35.8351978 77.9504246 46 81 C46.98228254 69.68506342 45.16829705 63.79582359 38 55 C37.27941406 54.06285156 36.55882812 53.12570312 35.81640625 52.16015625 C22.48163258 35.21239577 5.90178699 21.47091419 -16 18 C-30.0296064 16.84790828 -43.60774265 17.64090212 -57 22 Z M90 37 C89.19433594 37.72574219 88.38867188 38.45148438 87.55859375 39.19921875 C80.34586231 46.02817418 74.59667185 53.83681066 69 62 C68.40445312 62.82242188 67.80890625 63.64484375 67.1953125 64.4921875 C65.58157873 67.87786423 65.70798054 70.58463927 65.8125 74.3125 C65.83957031 75.56675781 65.86664063 76.82101562 65.89453125 78.11328125 C65.92933594 79.06589844 65.96414063 80.01851562 66 81 C66.70512317 80.7884537 67.41024633 80.57690741 68.13673687 80.35895061 C78.49665403 77.58440962 88.45167499 77.55784551 99.1105957 77.56762695 C101.11249389 77.558595 103.11438657 77.5482643 105.11627197 77.53674316 C110.51410521 77.50931537 115.9118331 77.49990806 121.30972695 77.49388909 C126.96451709 77.48446822 132.61922969 77.45826195 138.27397156 77.43388367 C148.96560367 77.39031682 159.65722064 77.36170965 170.34891433 77.33856028 C182.52798908 77.31145587 194.70698545 77.26754767 206.88600409 77.22227156 C231.92396182 77.1295659 256.96194081 77.05841684 282 77 C282 70.07 282 63.14 282 56 C278.9475 55.7525 275.895 55.505 272.75 55.25 C244.11038608 52.59946687 218.94105766 43.18522962 192.89892578 31.31103516 C158.68209702 15.8365219 119.93308207 9.42063036 90 37 Z M-180 97 C-180 105.25 -180 113.5 -180 122 C-177.41557068 122.00586624 -174.83114136 122.01173248 -172.168396 122.01777649 C-147.85850381 122.07437429 -123.54870109 122.14741829 -99.23890305 122.23571491 C-86.73984367 122.2807156 -74.24081305 122.32012038 -61.74169922 122.34643555 C-50.84980384 122.36938104 -39.95799918 122.40274033 -29.0661757 122.44870156 C-23.29692876 122.47268034 -17.52777192 122.49137858 -11.75847626 122.49761391 C-6.33138871 122.50364372 -0.90453183 122.52356716 4.52247047 122.55427551 C6.51711999 122.56308957 8.51179961 122.5667714 10.50646782 122.56500816 C13.22473474 122.56336356 15.94229163 122.57998482 18.66046143 122.60127258 C19.45423636 122.59642501 20.24801129 122.59157743 21.06584001 122.58658296 C24.27787419 122.62824771 26.59370527 122.77349966 29.42795944 124.35353374 C31.58788515 126.61571761 32.61512459 129.020706 33.875 131.875 C36.35243145 137.03527808 38.20684815 139.90442276 43 143 C43.845625 143.598125 44.69125 144.19625 45.5625 144.8125 C52.78006107 147.30583928 60.44405926 147.1317072 67.4375 144 C74.38535125 140.00245187 77.91187917 133.84126327 81.04296875 126.6640625 C82 125 82 125 85 123 C87.76007676 122.79858248 90.42032489 122.71478919 93.18132019 122.7215271 C94.44698278 122.7128385 94.44698278 122.7128385 95.73821431 122.70397437 C98.57575866 122.68692023 101.4131409 122.68409322 104.25073242 122.68115234 C106.28070985 122.6718579 108.31068345 122.66168996 110.34065247 122.65071106 C115.86095176 122.62334243 121.38122544 122.60824134 126.90157485 122.59528303 C132.66718605 122.57968247 138.43274471 122.5528825 144.19831848 122.5272522 C155.12048318 122.48040986 166.0426577 122.44369218 176.9648717 122.41057932 C189.39762713 122.37239643 201.83032985 122.32297627 214.2630409 122.27259517 C239.84198898 122.16919419 265.42097006 122.080359 291 122 C291 113.75 291 105.5 291 97 C265.00011068 96.95365382 239.00023134 96.91798602 213.00030899 96.89637566 C200.92743776 96.88607381 188.85459271 96.87203433 176.78173828 96.84912109 C166.25605398 96.82915382 155.73038864 96.81627563 145.20468593 96.81182301 C139.63414712 96.80922129 134.06366256 96.80312884 128.49314117 96.78853989 C123.24340147 96.77490324 117.99373805 96.77078962 112.74398232 96.77378464 C110.82362515 96.77323719 108.90326528 96.76929617 106.98292351 96.76158905 C86.56984101 96.0612351 86.56984101 96.0612351 69 105 C67.79985472 106.57927614 66.63296157 108.18435385 65.5 109.8125 C63.67832378 112.3247186 62.63896837 113.74463375 59.7421875 114.90234375 C56.21580025 115.42024551 53.6815091 115.23773573 50.3125 114.0625 C48.18255952 112.16282335 46.82220486 110.4371895 45.1875 108.125 C40.89153846 102.20853652 36.19892148 99.18177008 28.97064209 97.88137817 C20.05214398 96.51310697 11.09317065 96.73701785 2.09472656 96.77294922 C0.10283412 96.77351424 -1.88905873 96.77319499 -3.88095093 96.77206421 C-9.25613898 96.77149326 -14.63123674 96.78320558 -20.00640392 96.79721212 C-25.63579532 96.80976273 -31.26518906 96.81089339 -36.89459229 96.81326294 C-47.54025226 96.81946502 -58.18587088 96.83585856 -68.83151269 96.85596192 C-80.95731022 96.87836059 -93.08310978 96.88932431 -105.20892286 96.89935279 C-130.13930557 96.92022596 -155.06964871 96.95578267 -180 97 Z " fill="#000000" transform="translate(200,345)"/>
<path d="M0 0 C0.6581369 0.00021149 1.3162738 0.00042297 1.99435425 0.00064087 C31.83099358 0.09607252 58.18264896 11.82254631 79.6875 32.25 C100.09512012 53.82997277 110.85207745 80.28268045 110.8125 109.9375 C110.81228851 110.5956369 110.81207703 111.2537738 110.81185913 111.93185425 C110.7609708 127.84205526 108.04282072 141.8218137 101.4375 156.375 C100.93089844 157.49519531 100.42429687 158.61539063 99.90234375 159.76953125 C95.03008361 169.89343744 88.23588433 178.44091155 81.36328125 187.2734375 C66.98620011 205.80512557 61.19449097 219.70409632 61.42166138 243.37584305 C61.44930209 246.93283346 61.43873834 250.48980697 61.43359375 254.046875 C61.42739483 258.53469999 61.43295659 263.02125849 61.48876953 267.50878906 C61.53332281 271.17379788 61.53345061 274.83652156 61.50463867 278.50165939 C61.50158639 279.88341344 61.51418275 281.26530551 61.54370117 282.64674759 C61.69751864 290.25609492 61.28370586 295.250666 56.09716797 301.06396484 C54.56963592 302.52825618 53.01780882 303.96783002 51.4375 305.375 C50.22300424 306.61648414 49.01533182 307.8647573 47.8203125 309.125 C46.73696065 310.21091903 45.65109228 311.29433436 44.5625 312.375 C43.73105469 313.21224609 43.73105469 313.21224609 42.8828125 314.06640625 C38.09903747 318.83868182 35.60868218 320.61732784 28.82983398 320.74487305 C28.16270889 320.75962173 27.4955838 320.77437042 26.8082428 320.78956604 C24.60004146 320.83408559 22.39210508 320.86232231 20.18359375 320.88671875 C19.42654711 320.89611795 18.66950047 320.90551716 17.88951302 320.91520119 C13.87745813 320.96277896 9.86553391 320.99645071 5.85327148 321.02026367 C1.7289532 321.04788255 -2.392684 321.12695743 -6.51602268 321.21780682 C-9.70331843 321.27793471 -12.88999115 321.29756116 -16.07780266 321.30677223 C-17.59645794 321.31828638 -19.11508352 321.34495013 -20.63318062 321.38770103 C-28.39370921 321.59317563 -34.27530401 321.44955483 -40.33959961 316.04174805 C-41.777408 314.51401231 -43.18799951 312.95993465 -44.5625 311.375 C-45.80220766 310.15869094 -47.05017619 308.95063328 -48.3125 307.7578125 C-49.39841903 306.67446065 -50.48183436 305.58859228 -51.5625 304.5 C-52.12066406 303.94570313 -52.67882812 303.39140625 -53.25390625 302.8203125 C-57.8361109 298.22706639 -59.80500145 295.78169094 -59.86547852 289.25805664 C-59.89044151 287.36447166 -59.89044151 287.36447166 -59.91590881 285.43263245 C-59.92447902 284.05014082 -59.93297627 282.66764874 -59.94140625 281.28515625 C-59.95759685 279.86086402 -59.97477847 278.43658275 -59.99290466 277.01231384 C-60.03863548 273.25390772 -60.073384 269.49548608 -60.10510254 265.73693848 C-60.15687383 259.75401961 -60.22300193 253.77126763 -60.29331779 247.78854179 C-60.31581127 245.71500385 -60.33231259 243.64148516 -60.34803772 241.56788635 C-60.05983419 225.67722655 -60.05983419 225.67722655 -64.75 210.8125 C-65.26469849 209.82358765 -65.26469849 209.82358765 -65.78979492 208.81469727 C-71.51450014 198.28854728 -79.2276999 188.90982329 -86.59375 179.50390625 C-102.15288286 159.37155915 -109.97303606 136.23209237 -109.9375 110.8125 C-109.93695618 110.15369843 -109.93641235 109.49489685 -109.93585205 108.81613159 C-109.82213551 78.77358719 -97.89072415 52.46935612 -77.3125 30.6875 C-56.15272916 10.53711753 -29.13002218 -0.03887706 0 0 Z M-62.07373047 45.91748047 C-78.5580645 62.05580027 -88.62069743 83.52480846 -88.94311523 106.68603516 C-88.92353219 118.24343826 -88.49951906 128.440134 -84.5625 139.375 C-84.32644043 140.03113281 -84.09038086 140.68726563 -83.84716797 141.36328125 C-79.94636298 151.88614911 -74.39661967 160.54158794 -67.5625 169.375 C-44.36930056 199.47280549 -44.36930056 199.47280549 -40.5625 216.375 C-40.2325 217.695 -39.9025 219.015 -39.5625 220.375 C-29.9925 220.375 -20.4225 220.375 -10.5625 220.375 C-10.19906918 209.43852799 -9.9064247 198.50614747 -9.73350525 187.56497192 C-9.65045264 182.48274131 -9.53811349 177.40489939 -9.35546875 172.32519531 C-7.15898048 147.55353224 -7.15898048 147.55353224 -16.26000977 125.79736328 C-18.97964118 123.38748825 -21.72862017 121.29383952 -24.88256836 119.48608398 C-26.5625 118.375 -26.5625 118.375 -28.5625 115.375 C-28.79296875 113 -28.79296875 113 -28.75 110.375 C-28.74355469 109.50875 -28.73710937 108.6425 -28.73046875 107.75 C-28.5625 105.375 -28.5625 105.375 -27.5625 102.375 C-23.0810547 100.8811849 -19.21933432 100.33722874 -14.5625 101.375 C-10.77297529 103.95901257 -7.70212209 107.04810221 -4.5625 110.375 C-3.23144003 111.71060283 -1.89888094 113.04472126 -0.5625 114.375 C3.0616364 112.85599978 5.295124 110.69429546 8 107.875 C14.13569551 101.50132642 14.13569551 101.50132642 17.8125 101.14453125 C18.67875 101.15871094 19.545 101.17289062 20.4375 101.1875 C21.30375 101.19394531 22.17 101.20039062 23.0625 101.20703125 C25.4375 101.375 25.4375 101.375 28.4375 102.375 C29.93425135 106.86525405 30.44722482 110.70502269 29.4375 115.375 C27.6568615 118.09215356 25.67288815 120.26421619 23.3828125 122.5625 C22.74490784 123.20398483 22.74490784 123.20398483 22.09411621 123.85842896 C20.4375 125.375 20.4375 125.375 17.9967041 127.1491394 C13.64068797 130.68705197 10.3896709 133.87503906 9.55514526 139.55743408 C9.15271425 144.68806626 9.31123582 149.80675711 9.4609375 154.9453125 C9.47961666 156.83670289 9.49383809 158.72814207 9.5038147 160.61959839 C9.54177991 165.5692588 9.63980988 170.51592831 9.75085449 175.4644165 C9.85362996 180.52534531 9.8989246 185.58676325 9.94921875 190.6484375 C10.05608357 200.55880927 10.23179164 210.46618665 10.4375 220.375 C20.3375 220.375 30.2375 220.375 40.4375 220.375 C41.4275 216.415 42.4175 212.455 43.4375 208.375 C48.44286137 195.39452247 57.1399733 184.23366532 65.5625 173.30078125 C83.96292803 149.40181061 92.74342553 125.49418119 89.13720703 94.82080078 C85.08937747 71.34338934 70.99623675 50.22043582 51.734375 36.47265625 C15.06256261 13.13999837 -30.10261323 15.88461852 -62.07373047 45.91748047 Z M-39.5625 240.375 C-39.5625 246.975 -39.5625 253.575 -39.5625 260.375 C-13.1625 260.375 13.2375 260.375 40.4375 260.375 C40.4375 253.775 40.4375 247.175 40.4375 240.375 C14.0375 240.375 -12.3625 240.375 -39.5625 240.375 Z M-39.5625 280.375 C-39.5625 287.50499801 -36.43656042 290.18368823 -31.63037109 295.11819458 C-23.19241998 302.75884493 -13.80011769 302.64427883 -2.89257812 302.33056641 C0.44136568 302.24990648 3.74510016 302.32991992 7.078125 302.42578125 C17.03121216 302.47129275 24.8789176 302.0240256 32.50537109 295.11819458 C38.87453021 288.84434312 38.87453021 288.84434312 40.4375 280.375 C14.0375 280.375 -12.3625 280.375 -39.5625 280.375 Z " fill="#000000" transform="translate(255.5625,-0.375)"/>
<path d="M0 0 C3.76798831 1.6106303 7.23437041 3.65329997 10.75 5.75 C11.69488281 6.28882813 12.63976562 6.82765625 13.61328125 7.3828125 C21.41851724 11.9349416 21.41851724 11.9349416 24 16 C24.89957273 20.5302807 24.57712511 24.04475844 22.1875 28 C19.45710098 30.49636482 17.55750092 30.93084166 13.9140625 31.3828125 C8.54484305 30.85767926 4.93823257 28.62719964 0.375 25.875 C-0.45773437 25.400625 -1.29046875 24.92625 -2.1484375 24.4375 C-7.11119405 21.51358293 -10.731025 18.7727035 -14 14 C-14.619038 10.53338719 -14.80972674 8.3277137 -12.9375 5.2578125 C-9.16149913 0.56028761 -5.96588737 -1.083237 0 0 Z " fill="#000000" transform="translate(385,172)"/>
<path d="M0 0 C3.04172389 1.58751327 5.45151837 3.90303675 7 7 C7.48577994 11.21009284 7.46538365 13.31130725 5.0625 16.8671875 C1.55723367 20.83344419 -2.81745316 23.27875041 -7.375 25.875 C-8.2 26.37257812 -9.025 26.87015625 -9.875 27.3828125 C-14.74495447 30.19656397 -18.21930806 31.75655816 -24 31 C-27.5386994 29.34860695 -28.81070153 28.28394771 -31 25 C-31.3359375 22.9140625 -31.3359375 22.9140625 -31.375 20.625 C-31.40335937 19.87476563 -31.43171875 19.12453125 -31.4609375 18.3515625 C-30.64331353 14.18029445 -28.37332984 11.93650704 -24.90917969 9.57421875 C-22.37041596 8.03891491 -19.79456481 6.60351997 -17.1875 5.1875 C-16.31029297 4.68541016 -15.43308594 4.18332031 -14.52929688 3.66601562 C-9.56009254 0.93425408 -5.82266879 -0.89522608 0 0 Z " fill="#000000" transform="translate(134,172)"/>
<path d="M0 0 C2.50864769 1.31512406 4.93302635 2.7237209 7.35839844 4.18652344 C8.19113281 4.66089844 9.02386719 5.13527344 9.88183594 5.62402344 C14.84459249 8.54794051 18.46442344 11.28881994 21.73339844 16.06152344 C22.35243644 19.52813625 22.54312518 21.73380973 20.67089844 24.80371094 C17.91249214 28.23529973 16.12663146 29.86249015 11.78027344 30.48339844 C6.17433874 30.39625956 1.66070804 27.10104234 -3.01660156 24.31152344 C-3.96148437 23.77269531 -4.90636719 23.23386719 -5.87988281 22.67871094 C-13.68511881 18.12658184 -13.68511881 18.12658184 -16.26660156 14.06152344 C-17.16617429 9.53124274 -16.84372667 6.01676499 -14.45410156 2.06152344 C-10.31528488 -1.72253753 -5.15983045 -2.13640545 0 0 Z " fill="#000000" transform="translate(119.2666015625,17.9384765625)"/>
<path d="M0 0 C5.53846154 3.07692308 5.53846154 3.07692308 7 6 C7.23828125 7.98828125 7.23828125 7.98828125 7.3125 10.3125 C7.36857422 11.45138672 7.36857422 11.45138672 7.42578125 12.61328125 C6.79842336 16.12993878 5.55402028 17.46905822 3 20 C-0.15869238 22.15336892 -3.45511122 23.98894366 -6.8125 25.8125 C-7.68970703 26.31458984 -8.56691406 26.81667969 -9.47070312 27.33398438 C-14.43990746 30.06574592 -18.17733121 31.89522608 -24 31 C-27.04172389 29.41248673 -29.45151837 27.09696325 -31 24 C-31.48577994 19.78990716 -31.46538365 17.68869275 -29.0625 14.1328125 C-25.55723367 10.16655581 -21.18254684 7.72124959 -16.625 5.125 C-15.8 4.62742187 -14.975 4.12984375 -14.125 3.6171875 C-9.26982134 0.81197316 -5.76239594 -0.81078938 0 0 Z " fill="#000000" transform="translate(402,17)"/>
<path d="M0 0 C1.31484375 -0.00644531 2.6296875 -0.01289062 3.984375 -0.01953125 C5.0043457 -0.0038208 5.0043457 -0.0038208 6.04492188 0.01220703 C8.12034681 0.03900242 10.19036676 0.01243363 12.265625 -0.01953125 C14.23789062 -0.00986328 14.23789062 -0.00986328 16.25 0 C17.44882812 0.00563965 18.64765625 0.0112793 19.8828125 0.01708984 C24.01623205 0.84190625 25.51135883 2.42798193 28.125 5.6640625 C28.7890625 8.1640625 28.7890625 8.1640625 28.75 10.6640625 C28.76289063 11.4890625 28.77578125 12.3140625 28.7890625 13.1640625 C27.82020825 16.8115138 26.01119791 18.2804485 23.125 20.6640625 C19.8828125 21.31103516 19.8828125 21.31103516 16.25 21.328125 C14.93515625 21.33457031 13.6203125 21.34101562 12.265625 21.34765625 C11.58564453 21.33718262 10.90566406 21.32670898 10.20507812 21.31591797 C8.12965319 21.28912258 6.05963324 21.31569137 3.984375 21.34765625 C2.01210938 21.33798828 2.01210938 21.33798828 0 21.328125 C-1.79824219 21.31966553 -1.79824219 21.31966553 -3.6328125 21.31103516 C-7.76623205 20.48621875 -9.26135883 18.90014307 -11.875 15.6640625 C-12.5390625 13.1640625 -12.5390625 13.1640625 -12.5 10.6640625 C-12.51289063 9.8390625 -12.52578125 9.0140625 -12.5390625 8.1640625 C-10.81550818 1.67538743 -6.17617823 0.0290546 0 0 Z " fill="#000000" transform="translate(402.875,99.3359375)"/>
<path d="M0 0 C1.31484375 -0.00644531 2.6296875 -0.01289062 3.984375 -0.01953125 C5.0043457 -0.0038208 5.0043457 -0.0038208 6.04492188 0.01220703 C8.12034681 0.03900242 10.19036676 0.01243363 12.265625 -0.01953125 C14.23789063 -0.00986328 14.23789063 -0.00986328 16.25 0 C17.44882813 0.00563965 18.64765625 0.0112793 19.8828125 0.01708984 C24.01623205 0.84190625 25.51135883 2.42798193 28.125 5.6640625 C28.7890625 8.1640625 28.7890625 8.1640625 28.75 10.6640625 C28.76289062 11.4890625 28.77578125 12.3140625 28.7890625 13.1640625 C27.82020825 16.8115138 26.01119791 18.2804485 23.125 20.6640625 C19.8828125 21.31103516 19.8828125 21.31103516 16.25 21.328125 C14.93515625 21.33457031 13.6203125 21.34101562 12.265625 21.34765625 C11.58564453 21.33718262 10.90566406 21.32670898 10.20507812 21.31591797 C8.12965319 21.28912258 6.05963324 21.31569137 3.984375 21.34765625 C2.01210937 21.33798828 2.01210937 21.33798828 0 21.328125 C-1.79824219 21.31966553 -1.79824219 21.31966553 -3.6328125 21.31103516 C-7.76623205 20.48621875 -9.26135883 18.90014307 -11.875 15.6640625 C-12.5390625 13.1640625 -12.5390625 13.1640625 -12.5 10.6640625 C-12.51289062 9.8390625 -12.52578125 9.0140625 -12.5390625 8.1640625 C-10.81550818 1.67538743 -6.17617823 0.0290546 0 0 Z " fill="#000000" transform="translate(92.875,99.3359375)"/>
</svg>
