<svg width="21" height="22" viewBox="0 0 21 22" fill="none" xmlns="http://www.w3.org/2000/svg">
<path d="M6.02174 12.4881H3.73877C2.79823 12.4881 2.02869 13.2576 2.02869 14.1982V18.4734C2.02869 18.9437 2.41346 19.3284 2.88373 19.3284H6.02174C6.49201 19.3284 6.87678 18.9437 6.87678 18.4734V13.3431C6.87678 12.8729 6.49201 12.4881 6.02174 12.4881Z" fill="#21D372"/>
<path d="M11.7163 9.0679H9.43335C8.49281 9.0679 7.72327 9.83744 7.72327 10.778V18.4734C7.72327 18.9437 8.10804 19.3284 8.57831 19.3284H12.5714C13.0416 19.3284 13.4264 18.9437 13.4264 18.4734V10.778C13.4264 9.83744 12.6654 9.0679 11.7163 9.0679Z" fill="#21D372"/>
<path d="M17.4195 15.0532H15.1365C14.6663 15.0532 14.2815 15.438 14.2815 15.9083V18.4734C14.2815 18.9437 14.6663 19.3284 15.1365 19.3284H18.2745C18.7448 19.3284 19.1296 18.9437 19.1296 18.4734V16.7633C19.1296 15.8227 18.3601 15.0532 17.4195 15.0532Z" fill="#21D372"/>
<path d="M13.1528 4.66442C13.4179 4.39936 13.5205 4.08299 13.435 3.80938C13.3495 3.53576 13.0844 3.3391 12.7082 3.27925L11.8874 3.14244C11.8532 3.14244 11.7762 3.08259 11.7591 3.04839L11.3059 2.14204C10.9639 1.44946 10.1858 1.44946 9.84381 2.14204L9.39064 3.04839C9.38209 3.08259 9.30514 3.14244 9.27093 3.14244L8.45009 3.27925C8.07387 3.3391 7.81736 3.53576 7.72331 3.80938C7.6378 4.08299 7.74041 4.39936 8.00547 4.66442L8.6382 5.3057C8.6724 5.33135 8.69805 5.43396 8.6895 5.46816L8.50995 6.2548C8.37314 6.84478 8.59545 7.10985 8.74081 7.21245C8.88616 7.31506 9.20253 7.45186 9.72411 7.14405L10.4936 6.69087C10.5278 6.66522 10.639 6.66522 10.6732 6.69087L11.4342 7.14405C11.6736 7.2894 11.8703 7.33216 12.0242 7.33216C12.2037 7.33216 12.332 7.26375 12.4089 7.21245C12.5543 7.10985 12.7766 6.84478 12.6398 6.2548L12.4602 5.46816C12.4517 5.42541 12.4773 5.33135 12.5115 5.3057L13.1528 4.66442Z" fill="#21D372"/>
</svg>
