<svg width="20" height="24" viewBox="0 0 20 24" fill="none" xmlns="http://www.w3.org/2000/svg">
<path d="M12.0002 6.99999V0.459992C12.9252 0.809328 13.7654 1.3513 14.4652 2.04999L17.9492 5.53599C18.6486 6.23487 19.191 7.07489 19.5402 7.99999H13.0002C12.7349 7.99999 12.4806 7.89464 12.293 7.7071C12.1055 7.51956 12.0002 7.26521 12.0002 6.99999ZM20.0002 10.485V19C19.9986 20.3256 19.4713 21.5964 18.5339 22.5338C17.5966 23.4711 16.3257 23.9984 15.0002 24H5.00015C3.67456 23.9984 2.40371 23.4711 1.46637 22.5338C0.529035 21.5964 0.00174045 20.3256 0.000152588 19V4.99999C0.00174045 3.6744 0.529035 2.40355 1.46637 1.46621C2.40371 0.528874 3.67456 0.00158023 5.00015 -7.62939e-06L9.51515 -7.62939e-06C9.67815 -7.62939e-06 9.83915 0.0129924 10.0002 0.0239924V6.99999C10.0002 7.79564 10.3162 8.5587 10.8788 9.12131C11.4414 9.68392 12.2045 9.99999 13.0002 9.99999H19.9762C19.9872 10.161 20.0002 10.322 20.0002 10.485ZM12.0002 19C12.0002 18.7348 11.8948 18.4804 11.7073 18.2929C11.5197 18.1053 11.2654 18 11.0002 18H6.00015C5.73494 18 5.48058 18.1053 5.29305 18.2929C5.10551 18.4804 5.00015 18.7348 5.00015 19C5.00015 19.2652 5.10551 19.5196 5.29305 19.7071C5.48058 19.8946 5.73494 20 6.00015 20H11.0002C11.2654 20 11.5197 19.8946 11.7073 19.7071C11.8948 19.5196 12.0002 19.2652 12.0002 19ZM15.0002 15C15.0002 14.7348 14.8948 14.4804 14.7073 14.2929C14.5197 14.1053 14.2654 14 14.0002 14H6.00015C5.73494 14 5.48058 14.1053 5.29305 14.2929C5.10551 14.4804 5.00015 14.7348 5.00015 15C5.00015 15.2652 5.10551 15.5196 5.29305 15.7071C5.48058 15.8946 5.73494 16 6.00015 16H14.0002C14.2654 16 14.5197 15.8946 14.7073 15.7071C14.8948 15.5196 15.0002 15.2652 15.0002 15Z" fill="#D1D1D1"/>
</svg>
